<mxfile host="app.diagrams.net" modified="2024-05-15T11:45:57.743Z" agent="Mozilla/5.0 (Windows NT 10.0; Win64; x64) AppleWebKit/537.36 (KHTML, like Gecko) Chrome/124.0.0.0 Safari/537.36" etag="TiK6qL9k1J_zIiIBCJZU" version="24.0.2" type="google">
  <diagram name="Página-1" id="tO9RQdygPnViZjq2sY_N">
    <mxGraphModel grid="1" page="1" gridSize="10" guides="1" tooltips="1" connect="1" arrows="1" fold="1" pageScale="1" pageWidth="827" pageHeight="1169" math="0" shadow="0">
      <root>
        <mxCell id="0" />
        <mxCell id="1" parent="0" />
        <mxCell id="w0kZZCP1BCLPLKpDxx1f-6" value="Cliente" style="swimlane;fontStyle=1;align=center;verticalAlign=top;childLayout=stackLayout;horizontal=1;startSize=26;horizontalStack=0;resizeParent=1;resizeParentMax=0;resizeLast=0;collapsible=1;marginBottom=0;whiteSpace=wrap;html=1;" vertex="1" parent="1">
          <mxGeometry x="40" y="40" width="370" height="788" as="geometry">
            <mxRectangle x="40" y="40" width="80" height="30" as="alternateBounds" />
          </mxGeometry>
        </mxCell>
        <mxCell id="w0kZZCP1BCLPLKpDxx1f-7" value="- Nombre: String" style="text;strokeColor=none;fillColor=none;align=left;verticalAlign=top;spacingLeft=4;spacingRight=4;overflow=hidden;rotatable=0;points=[[0,0.5],[1,0.5]];portConstraint=eastwest;whiteSpace=wrap;html=1;" vertex="1" parent="w0kZZCP1BCLPLKpDxx1f-6">
          <mxGeometry y="26" width="370" height="26" as="geometry" />
        </mxCell>
        <mxCell id="w0kZZCP1BCLPLKpDxx1f-10" value="- DNI: String" style="text;strokeColor=none;fillColor=none;align=left;verticalAlign=top;spacingLeft=4;spacingRight=4;overflow=hidden;rotatable=0;points=[[0,0.5],[1,0.5]];portConstraint=eastwest;whiteSpace=wrap;html=1;" vertex="1" parent="w0kZZCP1BCLPLKpDxx1f-6">
          <mxGeometry y="52" width="370" height="26" as="geometry" />
        </mxCell>
        <mxCell id="w0kZZCP1BCLPLKpDxx1f-12" value="- Correo: String" style="text;strokeColor=none;fillColor=none;align=left;verticalAlign=top;spacingLeft=4;spacingRight=4;overflow=hidden;rotatable=0;points=[[0,0.5],[1,0.5]];portConstraint=eastwest;whiteSpace=wrap;html=1;" vertex="1" parent="w0kZZCP1BCLPLKpDxx1f-6">
          <mxGeometry y="78" width="370" height="26" as="geometry" />
        </mxCell>
        <mxCell id="VZvGrH1b7IaxPJ_ZFM3U-64" value="- Password: String" style="text;strokeColor=none;fillColor=none;align=left;verticalAlign=top;spacingLeft=4;spacingRight=4;overflow=hidden;rotatable=0;points=[[0,0.5],[1,0.5]];portConstraint=eastwest;whiteSpace=wrap;html=1;" vertex="1" parent="w0kZZCP1BCLPLKpDxx1f-6">
          <mxGeometry y="104" width="370" height="26" as="geometry" />
        </mxCell>
        <mxCell id="VZvGrH1b7IaxPJ_ZFM3U-83" value="- Obra: ArrayList &amp;lt;Obra&amp;gt;()" style="text;strokeColor=none;fillColor=none;align=left;verticalAlign=top;spacingLeft=4;spacingRight=4;overflow=hidden;rotatable=0;points=[[0,0.5],[1,0.5]];portConstraint=eastwest;whiteSpace=wrap;html=1;" vertex="1" parent="w0kZZCP1BCLPLKpDxx1f-6">
          <mxGeometry y="130" width="370" height="26" as="geometry" />
        </mxCell>
        <mxCell id="VZvGrH1b7IaxPJ_ZFM3U-84" value="- Compra: ArrayList &amp;lt;Compra&amp;gt;()" style="text;strokeColor=none;fillColor=none;align=left;verticalAlign=top;spacingLeft=4;spacingRight=4;overflow=hidden;rotatable=0;points=[[0,0.5],[1,0.5]];portConstraint=eastwest;whiteSpace=wrap;html=1;" vertex="1" parent="w0kZZCP1BCLPLKpDxx1f-6">
          <mxGeometry y="156" width="370" height="26" as="geometry" />
        </mxCell>
        <mxCell id="VZvGrH1b7IaxPJ_ZFM3U-85" value="- Reserva: ArrayList &amp;lt;Reserva&amp;gt;()" style="text;strokeColor=none;fillColor=none;align=left;verticalAlign=top;spacingLeft=4;spacingRight=4;overflow=hidden;rotatable=0;points=[[0,0.5],[1,0.5]];portConstraint=eastwest;whiteSpace=wrap;html=1;" vertex="1" parent="w0kZZCP1BCLPLKpDxx1f-6">
          <mxGeometry y="182" width="370" height="26" as="geometry" />
        </mxCell>
        <mxCell id="VZvGrH1b7IaxPJ_ZFM3U-86" value="- Asiento: ArrayList &amp;lt;Asiento&amp;gt;()" style="text;strokeColor=none;fillColor=none;align=left;verticalAlign=top;spacingLeft=4;spacingRight=4;overflow=hidden;rotatable=0;points=[[0,0.5],[1,0.5]];portConstraint=eastwest;whiteSpace=wrap;html=1;" vertex="1" parent="w0kZZCP1BCLPLKpDxx1f-6">
          <mxGeometry y="208" width="370" height="26" as="geometry" />
        </mxCell>
        <mxCell id="w0kZZCP1BCLPLKpDxx1f-8" value="" style="line;strokeWidth=1;fillColor=none;align=left;verticalAlign=middle;spacingTop=-1;spacingLeft=3;spacingRight=3;rotatable=0;labelPosition=right;points=[];portConstraint=eastwest;strokeColor=inherit;" vertex="1" parent="w0kZZCP1BCLPLKpDxx1f-6">
          <mxGeometry y="234" width="370" height="8" as="geometry" />
        </mxCell>
        <mxCell id="w0kZZCP1BCLPLKpDxx1f-13" value="+ Registrar (Cliente): boolean" style="text;strokeColor=none;fillColor=none;align=left;verticalAlign=top;spacingLeft=4;spacingRight=4;overflow=hidden;rotatable=0;points=[[0,0.5],[1,0.5]];portConstraint=eastwest;whiteSpace=wrap;html=1;" vertex="1" parent="w0kZZCP1BCLPLKpDxx1f-6">
          <mxGeometry y="242" width="370" height="26" as="geometry" />
        </mxCell>
        <mxCell id="VZvGrH1b7IaxPJ_ZFM3U-44" value="+ InicioSesión (Cliente): Boolean" style="text;strokeColor=none;fillColor=none;align=left;verticalAlign=top;spacingLeft=4;spacingRight=4;overflow=hidden;rotatable=0;points=[[0,0.5],[1,0.5]];portConstraint=eastwest;whiteSpace=wrap;html=1;" vertex="1" parent="w0kZZCP1BCLPLKpDxx1f-6">
          <mxGeometry y="268" width="370" height="26" as="geometry" />
        </mxCell>
        <mxCell id="VZvGrH1b7IaxPJ_ZFM3U-43" value="+ ExplorarFunciones (Cliente): int" style="text;strokeColor=none;fillColor=none;align=left;verticalAlign=top;spacingLeft=4;spacingRight=4;overflow=hidden;rotatable=0;points=[[0,0.5],[1,0.5]];portConstraint=eastwest;whiteSpace=wrap;html=1;" vertex="1" parent="w0kZZCP1BCLPLKpDxx1f-6">
          <mxGeometry y="294" width="370" height="26" as="geometry" />
        </mxCell>
        <mxCell id="VZvGrH1b7IaxPJ_ZFM3U-54" value="+ IngresarCorreo (Cliente): Boolean" style="text;strokeColor=none;fillColor=none;align=left;verticalAlign=top;spacingLeft=4;spacingRight=4;overflow=hidden;rotatable=0;points=[[0,0.5],[1,0.5]];portConstraint=eastwest;whiteSpace=wrap;html=1;" vertex="1" parent="w0kZZCP1BCLPLKpDxx1f-6">
          <mxGeometry y="320" width="370" height="26" as="geometry" />
        </mxCell>
        <mxCell id="VZvGrH1b7IaxPJ_ZFM3U-60" value="+ BajaUsuario(Cliente): Boolean" style="text;strokeColor=none;fillColor=none;align=left;verticalAlign=top;spacingLeft=4;spacingRight=4;overflow=hidden;rotatable=0;points=[[0,0.5],[1,0.5]];portConstraint=eastwest;whiteSpace=wrap;html=1;" vertex="1" parent="w0kZZCP1BCLPLKpDxx1f-6">
          <mxGeometry y="346" width="370" height="26" as="geometry" />
        </mxCell>
        <mxCell id="VZvGrH1b7IaxPJ_ZFM3U-59" value="+ ModificarUsuario(Cliente): Boolean" style="text;strokeColor=none;fillColor=none;align=left;verticalAlign=top;spacingLeft=4;spacingRight=4;overflow=hidden;rotatable=0;points=[[0,0.5],[1,0.5]];portConstraint=eastwest;whiteSpace=wrap;html=1;" vertex="1" parent="w0kZZCP1BCLPLKpDxx1f-6">
          <mxGeometry y="372" width="370" height="26" as="geometry" />
        </mxCell>
        <mxCell id="w0kZZCP1BCLPLKpDxx1f-9" value="+ ConsultarObras(Obra): ArrayList&amp;lt;Obra&amp;gt;" style="text;strokeColor=none;fillColor=none;align=left;verticalAlign=top;spacingLeft=4;spacingRight=4;overflow=hidden;rotatable=0;points=[[0,0.5],[1,0.5]];portConstraint=eastwest;whiteSpace=wrap;html=1;" vertex="1" parent="w0kZZCP1BCLPLKpDxx1f-6">
          <mxGeometry y="398" width="370" height="26" as="geometry" />
        </mxCell>
        <mxCell id="w0kZZCP1BCLPLKpDxx1f-14" value="+ Buscar (Obra): ArrayList&amp;lt;Obra&amp;gt;" style="text;strokeColor=none;fillColor=none;align=left;verticalAlign=top;spacingLeft=4;spacingRight=4;overflow=hidden;rotatable=0;points=[[0,0.5],[1,0.5]];portConstraint=eastwest;whiteSpace=wrap;html=1;" vertex="1" parent="w0kZZCP1BCLPLKpDxx1f-6">
          <mxGeometry y="424" width="370" height="26" as="geometry" />
        </mxCell>
        <mxCell id="w0kZZCP1BCLPLKpDxx1f-15" value="+ VerFavoritos(Obra): ArrayList&amp;lt;Obra&amp;gt;" style="text;strokeColor=none;fillColor=none;align=left;verticalAlign=top;spacingLeft=4;spacingRight=4;overflow=hidden;rotatable=0;points=[[0,0.5],[1,0.5]];portConstraint=eastwest;whiteSpace=wrap;html=1;" vertex="1" parent="w0kZZCP1BCLPLKpDxx1f-6">
          <mxGeometry y="450" width="370" height="26" as="geometry" />
        </mxCell>
        <mxCell id="VZvGrH1b7IaxPJ_ZFM3U-42" value="+ FiltrarFecha (Obra): ArrayList&amp;lt;Obra&amp;gt;" style="text;strokeColor=none;fillColor=none;align=left;verticalAlign=top;spacingLeft=4;spacingRight=4;overflow=hidden;rotatable=0;points=[[0,0.5],[1,0.5]];portConstraint=eastwest;whiteSpace=wrap;html=1;" vertex="1" parent="w0kZZCP1BCLPLKpDxx1f-6">
          <mxGeometry y="476" width="370" height="26" as="geometry" />
        </mxCell>
        <mxCell id="VZvGrH1b7IaxPJ_ZFM3U-55" value="+ FiltrarCategoria(Obra&lt;span style=&quot;background-color: initial;&quot;&gt;): ArrayList&amp;lt;Obra&amp;gt;&lt;/span&gt;" style="text;strokeColor=none;fillColor=none;align=left;verticalAlign=top;spacingLeft=4;spacingRight=4;overflow=hidden;rotatable=0;points=[[0,0.5],[1,0.5]];portConstraint=eastwest;whiteSpace=wrap;html=1;" vertex="1" parent="w0kZZCP1BCLPLKpDxx1f-6">
          <mxGeometry y="502" width="370" height="26" as="geometry" />
        </mxCell>
        <mxCell id="VZvGrH1b7IaxPJ_ZFM3U-57" value="+ ConsultarCalendario(Obra): ArrayList&amp;lt;Obra&amp;gt;" style="text;strokeColor=none;fillColor=none;align=left;verticalAlign=top;spacingLeft=4;spacingRight=4;overflow=hidden;rotatable=0;points=[[0,0.5],[1,0.5]];portConstraint=eastwest;whiteSpace=wrap;html=1;" vertex="1" parent="w0kZZCP1BCLPLKpDxx1f-6">
          <mxGeometry y="528" width="370" height="26" as="geometry" />
        </mxCell>
        <mxCell id="VZvGrH1b7IaxPJ_ZFM3U-50" value="+ ComprarEntradas(Compra): boolean" style="text;strokeColor=none;fillColor=none;align=left;verticalAlign=top;spacingLeft=4;spacingRight=4;overflow=hidden;rotatable=0;points=[[0,0.5],[1,0.5]];portConstraint=eastwest;whiteSpace=wrap;html=1;" vertex="1" parent="w0kZZCP1BCLPLKpDxx1f-6">
          <mxGeometry y="554" width="370" height="26" as="geometry" />
        </mxCell>
        <mxCell id="VZvGrH1b7IaxPJ_ZFM3U-53" value="+ ReservaAsientos(Asiento): Int" style="text;strokeColor=none;fillColor=none;align=left;verticalAlign=top;spacingLeft=4;spacingRight=4;overflow=hidden;rotatable=0;points=[[0,0.5],[1,0.5]];portConstraint=eastwest;whiteSpace=wrap;html=1;" vertex="1" parent="w0kZZCP1BCLPLKpDxx1f-6">
          <mxGeometry y="580" width="370" height="26" as="geometry" />
        </mxCell>
        <mxCell id="VZvGrH1b7IaxPJ_ZFM3U-56" value="+ RealizarReseña (Obra): String" style="text;strokeColor=none;fillColor=none;align=left;verticalAlign=top;spacingLeft=4;spacingRight=4;overflow=hidden;rotatable=0;points=[[0,0.5],[1,0.5]];portConstraint=eastwest;whiteSpace=wrap;html=1;" vertex="1" parent="w0kZZCP1BCLPLKpDxx1f-6">
          <mxGeometry y="606" width="370" height="26" as="geometry" />
        </mxCell>
        <mxCell id="VZvGrH1b7IaxPJ_ZFM3U-52" value="+ GestionarGruposGrandes (Cliente): boolean" style="text;strokeColor=none;fillColor=none;align=left;verticalAlign=top;spacingLeft=4;spacingRight=4;overflow=hidden;rotatable=0;points=[[0,0.5],[1,0.5]];portConstraint=eastwest;whiteSpace=wrap;html=1;" vertex="1" parent="w0kZZCP1BCLPLKpDxx1f-6">
          <mxGeometry y="632" width="370" height="26" as="geometry" />
        </mxCell>
        <mxCell id="VZvGrH1b7IaxPJ_ZFM3U-51" value="+ ComprarConcesiones (Compra): Double" style="text;strokeColor=none;fillColor=none;align=left;verticalAlign=top;spacingLeft=4;spacingRight=4;overflow=hidden;rotatable=0;points=[[0,0.5],[1,0.5]];portConstraint=eastwest;whiteSpace=wrap;html=1;" vertex="1" parent="w0kZZCP1BCLPLKpDxx1f-6">
          <mxGeometry y="658" width="370" height="26" as="geometry" />
        </mxCell>
        <mxCell id="VZvGrH1b7IaxPJ_ZFM3U-58" value="+ VerHistorialTransacciones(Compra): ArrayList&amp;lt;Compra&amp;gt;" style="text;strokeColor=none;fillColor=none;align=left;verticalAlign=top;spacingLeft=4;spacingRight=4;overflow=hidden;rotatable=0;points=[[0,0.5],[1,0.5]];portConstraint=eastwest;whiteSpace=wrap;html=1;" vertex="1" parent="w0kZZCP1BCLPLKpDxx1f-6">
          <mxGeometry y="684" width="370" height="26" as="geometry" />
        </mxCell>
        <mxCell id="VZvGrH1b7IaxPJ_ZFM3U-20" value="+ consultarCompra(Compra): ArrayList&amp;lt;Compra&amp;gt;" style="text;strokeColor=none;fillColor=none;align=left;verticalAlign=top;spacingLeft=4;spacingRight=4;overflow=hidden;rotatable=0;points=[[0,0.5],[1,0.5]];portConstraint=eastwest;whiteSpace=wrap;html=1;" vertex="1" parent="w0kZZCP1BCLPLKpDxx1f-6">
          <mxGeometry y="710" width="370" height="26" as="geometry" />
        </mxCell>
        <mxCell id="VZvGrH1b7IaxPJ_ZFM3U-30" value="+ ConsultarReserva(Reserva): Arraylist &amp;lt;Reserva&amp;gt;" style="text;strokeColor=none;fillColor=none;align=left;verticalAlign=top;spacingLeft=4;spacingRight=4;overflow=hidden;rotatable=0;points=[[0,0.5],[1,0.5]];portConstraint=eastwest;whiteSpace=wrap;html=1;" vertex="1" parent="w0kZZCP1BCLPLKpDxx1f-6">
          <mxGeometry y="736" width="370" height="26" as="geometry" />
        </mxCell>
        <mxCell id="bFQOPjF66tbTwJVJTHA0-21" value="+ ConsultarEstado(Asiento): boolean" style="text;strokeColor=none;fillColor=none;align=left;verticalAlign=top;spacingLeft=4;spacingRight=4;overflow=hidden;rotatable=0;points=[[0,0.5],[1,0.5]];portConstraint=eastwest;whiteSpace=wrap;html=1;" vertex="1" parent="w0kZZCP1BCLPLKpDxx1f-6">
          <mxGeometry y="762" width="370" height="26" as="geometry" />
        </mxCell>
        <mxCell id="VZvGrH1b7IaxPJ_ZFM3U-1" value="Obra" style="swimlane;fontStyle=1;align=center;verticalAlign=top;childLayout=stackLayout;horizontal=1;startSize=26;horizontalStack=0;resizeParent=1;resizeParentMax=0;resizeLast=0;collapsible=1;marginBottom=0;whiteSpace=wrap;html=1;" vertex="1" parent="1">
          <mxGeometry x="600" y="40" width="300" height="398" as="geometry" />
        </mxCell>
        <mxCell id="VZvGrH1b7IaxPJ_ZFM3U-2" value="- Cod_Obra: String" style="text;strokeColor=none;fillColor=none;align=left;verticalAlign=top;spacingLeft=4;spacingRight=4;overflow=hidden;rotatable=0;points=[[0,0.5],[1,0.5]];portConstraint=eastwest;whiteSpace=wrap;html=1;" vertex="1" parent="VZvGrH1b7IaxPJ_ZFM3U-1">
          <mxGeometry y="26" width="300" height="26" as="geometry" />
        </mxCell>
        <mxCell id="VZvGrH1b7IaxPJ_ZFM3U-3" value="- Cod_Reserva: String" style="text;strokeColor=none;fillColor=none;align=left;verticalAlign=top;spacingLeft=4;spacingRight=4;overflow=hidden;rotatable=0;points=[[0,0.5],[1,0.5]];portConstraint=eastwest;whiteSpace=wrap;html=1;" vertex="1" parent="VZvGrH1b7IaxPJ_ZFM3U-1">
          <mxGeometry y="52" width="300" height="26" as="geometry" />
        </mxCell>
        <mxCell id="VZvGrH1b7IaxPJ_ZFM3U-4" value="- Categoria: String" style="text;strokeColor=none;fillColor=none;align=left;verticalAlign=top;spacingLeft=4;spacingRight=4;overflow=hidden;rotatable=0;points=[[0,0.5],[1,0.5]];portConstraint=eastwest;whiteSpace=wrap;html=1;" vertex="1" parent="VZvGrH1b7IaxPJ_ZFM3U-1">
          <mxGeometry y="78" width="300" height="26" as="geometry" />
        </mxCell>
        <mxCell id="VZvGrH1b7IaxPJ_ZFM3U-5" value="- Fecha_Hora: LocalDateTime" style="text;strokeColor=none;fillColor=none;align=left;verticalAlign=top;spacingLeft=4;spacingRight=4;overflow=hidden;rotatable=0;points=[[0,0.5],[1,0.5]];portConstraint=eastwest;whiteSpace=wrap;html=1;" vertex="1" parent="VZvGrH1b7IaxPJ_ZFM3U-1">
          <mxGeometry y="104" width="300" height="26" as="geometry" />
        </mxCell>
        <mxCell id="bFQOPjF66tbTwJVJTHA0-2" value="- Capacidad: int" style="text;strokeColor=none;fillColor=none;align=left;verticalAlign=top;spacingLeft=4;spacingRight=4;overflow=hidden;rotatable=0;points=[[0,0.5],[1,0.5]];portConstraint=eastwest;whiteSpace=wrap;html=1;" vertex="1" parent="VZvGrH1b7IaxPJ_ZFM3U-1">
          <mxGeometry y="130" width="300" height="26" as="geometry" />
        </mxCell>
        <mxCell id="bFQOPjF66tbTwJVJTHA0-3" value="- Duracion: int" style="text;strokeColor=none;fillColor=none;align=left;verticalAlign=top;spacingLeft=4;spacingRight=4;overflow=hidden;rotatable=0;points=[[0,0.5],[1,0.5]];portConstraint=eastwest;whiteSpace=wrap;html=1;" vertex="1" parent="VZvGrH1b7IaxPJ_ZFM3U-1">
          <mxGeometry y="156" width="300" height="26" as="geometry" />
        </mxCell>
        <mxCell id="bFQOPjF66tbTwJVJTHA0-4" value="- Titulo: String" style="text;strokeColor=none;fillColor=none;align=left;verticalAlign=top;spacingLeft=4;spacingRight=4;overflow=hidden;rotatable=0;points=[[0,0.5],[1,0.5]];portConstraint=eastwest;whiteSpace=wrap;html=1;" vertex="1" parent="VZvGrH1b7IaxPJ_ZFM3U-1">
          <mxGeometry y="182" width="300" height="26" as="geometry" />
        </mxCell>
        <mxCell id="VZvGrH1b7IaxPJ_ZFM3U-81" value="- Reseña: ArrayList&amp;lt;String&amp;gt;" style="text;strokeColor=none;fillColor=none;align=left;verticalAlign=top;spacingLeft=4;spacingRight=4;overflow=hidden;rotatable=0;points=[[0,0.5],[1,0.5]];portConstraint=eastwest;whiteSpace=wrap;html=1;" vertex="1" parent="VZvGrH1b7IaxPJ_ZFM3U-1">
          <mxGeometry y="208" width="300" height="26" as="geometry" />
        </mxCell>
        <mxCell id="VZvGrH1b7IaxPJ_ZFM3U-6" value="" style="line;strokeWidth=1;fillColor=none;align=left;verticalAlign=middle;spacingTop=-1;spacingLeft=3;spacingRight=3;rotatable=0;labelPosition=right;points=[];portConstraint=eastwest;strokeColor=inherit;" vertex="1" parent="VZvGrH1b7IaxPJ_ZFM3U-1">
          <mxGeometry y="234" width="300" height="8" as="geometry" />
        </mxCell>
        <mxCell id="bFQOPjF66tbTwJVJTHA0-6" value="+ obtenerPrecio(): void" style="text;strokeColor=none;fillColor=none;align=left;verticalAlign=top;spacingLeft=4;spacingRight=4;overflow=hidden;rotatable=0;points=[[0,0.5],[1,0.5]];portConstraint=eastwest;whiteSpace=wrap;html=1;" vertex="1" parent="VZvGrH1b7IaxPJ_ZFM3U-1">
          <mxGeometry y="242" width="300" height="26" as="geometry" />
        </mxCell>
        <mxCell id="bFQOPjF66tbTwJVJTHA0-7" value="+ obtenerAsientosDisponibles(): void" style="text;strokeColor=none;fillColor=none;align=left;verticalAlign=top;spacingLeft=4;spacingRight=4;overflow=hidden;rotatable=0;points=[[0,0.5],[1,0.5]];portConstraint=eastwest;whiteSpace=wrap;html=1;" vertex="1" parent="VZvGrH1b7IaxPJ_ZFM3U-1">
          <mxGeometry y="268" width="300" height="26" as="geometry" />
        </mxCell>
        <mxCell id="bFQOPjF66tbTwJVJTHA0-8" value="+ obtenerDuracion(): void" style="text;strokeColor=none;fillColor=none;align=left;verticalAlign=top;spacingLeft=4;spacingRight=4;overflow=hidden;rotatable=0;points=[[0,0.5],[1,0.5]];portConstraint=eastwest;whiteSpace=wrap;html=1;" vertex="1" parent="VZvGrH1b7IaxPJ_ZFM3U-1">
          <mxGeometry y="294" width="300" height="26" as="geometry" />
        </mxCell>
        <mxCell id="bFQOPjF66tbTwJVJTHA0-9" value="+ obtenerCategoria(): void" style="text;strokeColor=none;fillColor=none;align=left;verticalAlign=top;spacingLeft=4;spacingRight=4;overflow=hidden;rotatable=0;points=[[0,0.5],[1,0.5]];portConstraint=eastwest;whiteSpace=wrap;html=1;" vertex="1" parent="VZvGrH1b7IaxPJ_ZFM3U-1">
          <mxGeometry y="320" width="300" height="26" as="geometry" />
        </mxCell>
        <mxCell id="VZvGrH1b7IaxPJ_ZFM3U-78" value="+ obtenerFechaHora(): void" style="text;strokeColor=none;fillColor=none;align=left;verticalAlign=top;spacingLeft=4;spacingRight=4;overflow=hidden;rotatable=0;points=[[0,0.5],[1,0.5]];portConstraint=eastwest;whiteSpace=wrap;html=1;" vertex="1" parent="VZvGrH1b7IaxPJ_ZFM3U-1">
          <mxGeometry y="346" width="300" height="26" as="geometry" />
        </mxCell>
        <mxCell id="VZvGrH1b7IaxPJ_ZFM3U-79" value="+ obtenerTitulo(): void" style="text;strokeColor=none;fillColor=none;align=left;verticalAlign=top;spacingLeft=4;spacingRight=4;overflow=hidden;rotatable=0;points=[[0,0.5],[1,0.5]];portConstraint=eastwest;whiteSpace=wrap;html=1;" vertex="1" parent="VZvGrH1b7IaxPJ_ZFM3U-1">
          <mxGeometry y="372" width="300" height="26" as="geometry" />
        </mxCell>
        <mxCell id="VZvGrH1b7IaxPJ_ZFM3U-11" value="Compra" style="swimlane;fontStyle=1;align=center;verticalAlign=top;childLayout=stackLayout;horizontal=1;startSize=26;horizontalStack=0;resizeParent=1;resizeParentMax=0;resizeLast=0;collapsible=1;marginBottom=0;whiteSpace=wrap;html=1;" vertex="1" parent="1">
          <mxGeometry x="560" y="510" width="230" height="216" as="geometry" />
        </mxCell>
        <mxCell id="VZvGrH1b7IaxPJ_ZFM3U-12" value="- Cod_Compra: String" style="text;strokeColor=none;fillColor=none;align=left;verticalAlign=top;spacingLeft=4;spacingRight=4;overflow=hidden;rotatable=0;points=[[0,0.5],[1,0.5]];portConstraint=eastwest;whiteSpace=wrap;html=1;" vertex="1" parent="VZvGrH1b7IaxPJ_ZFM3U-11">
          <mxGeometry y="26" width="230" height="26" as="geometry" />
        </mxCell>
        <mxCell id="VZvGrH1b7IaxPJ_ZFM3U-13" value="- Cod_Reserva: int" style="text;strokeColor=none;fillColor=none;align=left;verticalAlign=top;spacingLeft=4;spacingRight=4;overflow=hidden;rotatable=0;points=[[0,0.5],[1,0.5]];portConstraint=eastwest;whiteSpace=wrap;html=1;" vertex="1" parent="VZvGrH1b7IaxPJ_ZFM3U-11">
          <mxGeometry y="52" width="230" height="26" as="geometry" />
        </mxCell>
        <mxCell id="VZvGrH1b7IaxPJ_ZFM3U-14" value="- MetodoPago: String" style="text;strokeColor=none;fillColor=none;align=left;verticalAlign=top;spacingLeft=4;spacingRight=4;overflow=hidden;rotatable=0;points=[[0,0.5],[1,0.5]];portConstraint=eastwest;whiteSpace=wrap;html=1;" vertex="1" parent="VZvGrH1b7IaxPJ_ZFM3U-11">
          <mxGeometry y="78" width="230" height="26" as="geometry" />
        </mxCell>
        <mxCell id="VZvGrH1b7IaxPJ_ZFM3U-15" value="- EstadoPago: boolean" style="text;strokeColor=none;fillColor=none;align=left;verticalAlign=top;spacingLeft=4;spacingRight=4;overflow=hidden;rotatable=0;points=[[0,0.5],[1,0.5]];portConstraint=eastwest;whiteSpace=wrap;html=1;" vertex="1" parent="VZvGrH1b7IaxPJ_ZFM3U-11">
          <mxGeometry y="104" width="230" height="26" as="geometry" />
        </mxCell>
        <mxCell id="bFQOPjF66tbTwJVJTHA0-11" value="- Fecha_Hora: LocalDateTime" style="text;strokeColor=none;fillColor=none;align=left;verticalAlign=top;spacingLeft=4;spacingRight=4;overflow=hidden;rotatable=0;points=[[0,0.5],[1,0.5]];portConstraint=eastwest;whiteSpace=wrap;html=1;" vertex="1" parent="VZvGrH1b7IaxPJ_ZFM3U-11">
          <mxGeometry y="130" width="230" height="26" as="geometry" />
        </mxCell>
        <mxCell id="VZvGrH1b7IaxPJ_ZFM3U-16" value="" style="line;strokeWidth=1;fillColor=none;align=left;verticalAlign=middle;spacingTop=-1;spacingLeft=3;spacingRight=3;rotatable=0;labelPosition=right;points=[];portConstraint=eastwest;strokeColor=inherit;" vertex="1" parent="VZvGrH1b7IaxPJ_ZFM3U-11">
          <mxGeometry y="156" width="230" height="8" as="geometry" />
        </mxCell>
        <mxCell id="VZvGrH1b7IaxPJ_ZFM3U-18" value="+ verificarPago(): void" style="text;strokeColor=none;fillColor=none;align=left;verticalAlign=top;spacingLeft=4;spacingRight=4;overflow=hidden;rotatable=0;points=[[0,0.5],[1,0.5]];portConstraint=eastwest;whiteSpace=wrap;html=1;" vertex="1" parent="VZvGrH1b7IaxPJ_ZFM3U-11">
          <mxGeometry y="164" width="230" height="26" as="geometry" />
        </mxCell>
        <mxCell id="VZvGrH1b7IaxPJ_ZFM3U-19" value="+ actualizarEstadoPago(): void" style="text;strokeColor=none;fillColor=none;align=left;verticalAlign=top;spacingLeft=4;spacingRight=4;overflow=hidden;rotatable=0;points=[[0,0.5],[1,0.5]];portConstraint=eastwest;whiteSpace=wrap;html=1;" vertex="1" parent="VZvGrH1b7IaxPJ_ZFM3U-11">
          <mxGeometry y="190" width="230" height="26" as="geometry" />
        </mxCell>
        <mxCell id="VZvGrH1b7IaxPJ_ZFM3U-21" value="Reserva" style="swimlane;fontStyle=1;align=center;verticalAlign=top;childLayout=stackLayout;horizontal=1;startSize=26;horizontalStack=0;resizeParent=1;resizeParentMax=0;resizeLast=0;collapsible=1;marginBottom=0;whiteSpace=wrap;html=1;" vertex="1" parent="1">
          <mxGeometry x="560" y="760" width="160" height="216" as="geometry" />
        </mxCell>
        <mxCell id="VZvGrH1b7IaxPJ_ZFM3U-22" value="- Cod_Reserva: int" style="text;strokeColor=none;fillColor=none;align=left;verticalAlign=top;spacingLeft=4;spacingRight=4;overflow=hidden;rotatable=0;points=[[0,0.5],[1,0.5]];portConstraint=eastwest;whiteSpace=wrap;html=1;" vertex="1" parent="VZvGrH1b7IaxPJ_ZFM3U-21">
          <mxGeometry y="26" width="160" height="26" as="geometry" />
        </mxCell>
        <mxCell id="VZvGrH1b7IaxPJ_ZFM3U-23" value="- Dni_Usuario" style="text;strokeColor=none;fillColor=none;align=left;verticalAlign=top;spacingLeft=4;spacingRight=4;overflow=hidden;rotatable=0;points=[[0,0.5],[1,0.5]];portConstraint=eastwest;whiteSpace=wrap;html=1;" vertex="1" parent="VZvGrH1b7IaxPJ_ZFM3U-21">
          <mxGeometry y="52" width="160" height="26" as="geometry" />
        </mxCell>
        <mxCell id="VZvGrH1b7IaxPJ_ZFM3U-24" value="- Cod_Obra: String" style="text;strokeColor=none;fillColor=none;align=left;verticalAlign=top;spacingLeft=4;spacingRight=4;overflow=hidden;rotatable=0;points=[[0,0.5],[1,0.5]];portConstraint=eastwest;whiteSpace=wrap;html=1;" vertex="1" parent="VZvGrH1b7IaxPJ_ZFM3U-21">
          <mxGeometry y="78" width="160" height="26" as="geometry" />
        </mxCell>
        <mxCell id="VZvGrH1b7IaxPJ_ZFM3U-25" value="- Numero_Entradas: int" style="text;strokeColor=none;fillColor=none;align=left;verticalAlign=top;spacingLeft=4;spacingRight=4;overflow=hidden;rotatable=0;points=[[0,0.5],[1,0.5]];portConstraint=eastwest;whiteSpace=wrap;html=1;" vertex="1" parent="VZvGrH1b7IaxPJ_ZFM3U-21">
          <mxGeometry y="104" width="160" height="26" as="geometry" />
        </mxCell>
        <mxCell id="VZvGrH1b7IaxPJ_ZFM3U-26" value="" style="line;strokeWidth=1;fillColor=none;align=left;verticalAlign=middle;spacingTop=-1;spacingLeft=3;spacingRight=3;rotatable=0;labelPosition=right;points=[];portConstraint=eastwest;strokeColor=inherit;" vertex="1" parent="VZvGrH1b7IaxPJ_ZFM3U-21">
          <mxGeometry y="130" width="160" height="8" as="geometry" />
        </mxCell>
        <mxCell id="VZvGrH1b7IaxPJ_ZFM3U-27" value="+ crearReserva(): void" style="text;strokeColor=none;fillColor=none;align=left;verticalAlign=top;spacingLeft=4;spacingRight=4;overflow=hidden;rotatable=0;points=[[0,0.5],[1,0.5]];portConstraint=eastwest;whiteSpace=wrap;html=1;" vertex="1" parent="VZvGrH1b7IaxPJ_ZFM3U-21">
          <mxGeometry y="138" width="160" height="26" as="geometry" />
        </mxCell>
        <mxCell id="VZvGrH1b7IaxPJ_ZFM3U-28" value="+ cancelarReserva(): void" style="text;strokeColor=none;fillColor=none;align=left;verticalAlign=top;spacingLeft=4;spacingRight=4;overflow=hidden;rotatable=0;points=[[0,0.5],[1,0.5]];portConstraint=eastwest;whiteSpace=wrap;html=1;" vertex="1" parent="VZvGrH1b7IaxPJ_ZFM3U-21">
          <mxGeometry y="164" width="160" height="26" as="geometry" />
        </mxCell>
        <mxCell id="VZvGrH1b7IaxPJ_ZFM3U-29" value="+ actualizarEstado(): void" style="text;strokeColor=none;fillColor=none;align=left;verticalAlign=top;spacingLeft=4;spacingRight=4;overflow=hidden;rotatable=0;points=[[0,0.5],[1,0.5]];portConstraint=eastwest;whiteSpace=wrap;html=1;" vertex="1" parent="VZvGrH1b7IaxPJ_ZFM3U-21">
          <mxGeometry y="190" width="160" height="26" as="geometry" />
        </mxCell>
        <mxCell id="bFQOPjF66tbTwJVJTHA0-12" value="Asiento" style="swimlane;fontStyle=1;align=center;verticalAlign=top;childLayout=stackLayout;horizontal=1;startSize=26;horizontalStack=0;resizeParent=1;resizeParentMax=0;resizeLast=0;collapsible=1;marginBottom=0;whiteSpace=wrap;html=1;" vertex="1" parent="1">
          <mxGeometry x="560" y="1060" width="160" height="192" as="geometry" />
        </mxCell>
        <mxCell id="bFQOPjF66tbTwJVJTHA0-13" value="- Num_Asiento: int" style="text;strokeColor=none;fillColor=none;align=left;verticalAlign=top;spacingLeft=4;spacingRight=4;overflow=hidden;rotatable=0;points=[[0,0.5],[1,0.5]];portConstraint=eastwest;whiteSpace=wrap;html=1;" vertex="1" parent="bFQOPjF66tbTwJVJTHA0-12">
          <mxGeometry y="26" width="160" height="26" as="geometry" />
        </mxCell>
        <mxCell id="bFQOPjF66tbTwJVJTHA0-14" value="- Cod_Obra: String" style="text;strokeColor=none;fillColor=none;align=left;verticalAlign=top;spacingLeft=4;spacingRight=4;overflow=hidden;rotatable=0;points=[[0,0.5],[1,0.5]];portConstraint=eastwest;whiteSpace=wrap;html=1;" vertex="1" parent="bFQOPjF66tbTwJVJTHA0-12">
          <mxGeometry y="52" width="160" height="28" as="geometry" />
        </mxCell>
        <mxCell id="bFQOPjF66tbTwJVJTHA0-15" value="- Estado: boolean" style="text;strokeColor=none;fillColor=none;align=left;verticalAlign=top;spacingLeft=4;spacingRight=4;overflow=hidden;rotatable=0;points=[[0,0.5],[1,0.5]];portConstraint=eastwest;whiteSpace=wrap;html=1;" vertex="1" parent="bFQOPjF66tbTwJVJTHA0-12">
          <mxGeometry y="80" width="160" height="26" as="geometry" />
        </mxCell>
        <mxCell id="bFQOPjF66tbTwJVJTHA0-16" value="- Precio: Double" style="text;strokeColor=none;fillColor=none;align=left;verticalAlign=top;spacingLeft=4;spacingRight=4;overflow=hidden;rotatable=0;points=[[0,0.5],[1,0.5]];portConstraint=eastwest;whiteSpace=wrap;html=1;" vertex="1" parent="bFQOPjF66tbTwJVJTHA0-12">
          <mxGeometry y="106" width="160" height="26" as="geometry" />
        </mxCell>
        <mxCell id="bFQOPjF66tbTwJVJTHA0-17" value="" style="line;strokeWidth=1;fillColor=none;align=left;verticalAlign=middle;spacingTop=-1;spacingLeft=3;spacingRight=3;rotatable=0;labelPosition=right;points=[];portConstraint=eastwest;strokeColor=inherit;" vertex="1" parent="bFQOPjF66tbTwJVJTHA0-12">
          <mxGeometry y="132" width="160" height="8" as="geometry" />
        </mxCell>
        <mxCell id="bFQOPjF66tbTwJVJTHA0-18" value="+reservarAsiento(): void" style="text;strokeColor=none;fillColor=none;align=left;verticalAlign=top;spacingLeft=4;spacingRight=4;overflow=hidden;rotatable=0;points=[[0,0.5],[1,0.5]];portConstraint=eastwest;whiteSpace=wrap;html=1;" vertex="1" parent="bFQOPjF66tbTwJVJTHA0-12">
          <mxGeometry y="140" width="160" height="26" as="geometry" />
        </mxCell>
        <mxCell id="bFQOPjF66tbTwJVJTHA0-19" value="+liberarAsiento(): void" style="text;strokeColor=none;fillColor=none;align=left;verticalAlign=top;spacingLeft=4;spacingRight=4;overflow=hidden;rotatable=0;points=[[0,0.5],[1,0.5]];portConstraint=eastwest;whiteSpace=wrap;html=1;" vertex="1" parent="bFQOPjF66tbTwJVJTHA0-12">
          <mxGeometry y="166" width="160" height="26" as="geometry" />
        </mxCell>
        <mxCell id="bFQOPjF66tbTwJVJTHA0-22" value="" style="endArrow=diamondThin;endFill=1;endSize=24;html=1;rounded=0;exitX=0.009;exitY=0.088;exitDx=0;exitDy=0;exitPerimeter=0;entryX=1;entryY=0.5;entryDx=0;entryDy=0;" edge="1" parent="1" source="VZvGrH1b7IaxPJ_ZFM3U-11" target="VZvGrH1b7IaxPJ_ZFM3U-54">
          <mxGeometry width="160" relative="1" as="geometry">
            <mxPoint x="450" y="410" as="sourcePoint" />
            <mxPoint x="610" y="410" as="targetPoint" />
          </mxGeometry>
        </mxCell>
        <mxCell id="bFQOPjF66tbTwJVJTHA0-23" value="" style="endArrow=diamondThin;endFill=0;endSize=24;html=1;rounded=0;entryX=0.003;entryY=-0.038;entryDx=0;entryDy=0;entryPerimeter=0;" edge="1" parent="1" target="bFQOPjF66tbTwJVJTHA0-6">
          <mxGeometry width="160" relative="1" as="geometry">
            <mxPoint x="414" y="300" as="sourcePoint" />
            <mxPoint x="574" y="300" as="targetPoint" />
          </mxGeometry>
        </mxCell>
        <mxCell id="bFQOPjF66tbTwJVJTHA0-24" value="" style="endArrow=diamondThin;endFill=1;endSize=24;html=1;rounded=0;exitX=0.5;exitY=0;exitDx=0;exitDy=0;entryX=0.335;entryY=0.923;entryDx=0;entryDy=0;entryPerimeter=0;" edge="1" parent="1" source="VZvGrH1b7IaxPJ_ZFM3U-21" target="VZvGrH1b7IaxPJ_ZFM3U-19">
          <mxGeometry width="160" relative="1" as="geometry">
            <mxPoint x="572" y="509" as="sourcePoint" />
            <mxPoint x="420" y="383" as="targetPoint" />
          </mxGeometry>
        </mxCell>
        <mxCell id="VZvGrH1b7IaxPJ_ZFM3U-87" value="Concesiones" style="swimlane;fontStyle=1;align=center;verticalAlign=top;childLayout=stackLayout;horizontal=1;startSize=26;horizontalStack=0;resizeParent=1;resizeParentMax=0;resizeLast=0;collapsible=1;marginBottom=0;whiteSpace=wrap;html=1;" vertex="1" parent="1">
          <mxGeometry x="290" y="1070" width="160" height="192" as="geometry" />
        </mxCell>
        <mxCell id="VZvGrH1b7IaxPJ_ZFM3U-88" value="- Cod_concesión: int" style="text;strokeColor=none;fillColor=none;align=left;verticalAlign=top;spacingLeft=4;spacingRight=4;overflow=hidden;rotatable=0;points=[[0,0.5],[1,0.5]];portConstraint=eastwest;whiteSpace=wrap;html=1;" vertex="1" parent="VZvGrH1b7IaxPJ_ZFM3U-87">
          <mxGeometry y="26" width="160" height="26" as="geometry" />
        </mxCell>
        <mxCell id="VZvGrH1b7IaxPJ_ZFM3U-89" value="- Objeto: String" style="text;strokeColor=none;fillColor=none;align=left;verticalAlign=top;spacingLeft=4;spacingRight=4;overflow=hidden;rotatable=0;points=[[0,0.5],[1,0.5]];portConstraint=eastwest;whiteSpace=wrap;html=1;" vertex="1" parent="VZvGrH1b7IaxPJ_ZFM3U-87">
          <mxGeometry y="52" width="160" height="28" as="geometry" />
        </mxCell>
        <mxCell id="VZvGrH1b7IaxPJ_ZFM3U-90" value="- Stock: Int&amp;nbsp;" style="text;strokeColor=none;fillColor=none;align=left;verticalAlign=top;spacingLeft=4;spacingRight=4;overflow=hidden;rotatable=0;points=[[0,0.5],[1,0.5]];portConstraint=eastwest;whiteSpace=wrap;html=1;" vertex="1" parent="VZvGrH1b7IaxPJ_ZFM3U-87">
          <mxGeometry y="80" width="160" height="26" as="geometry" />
        </mxCell>
        <mxCell id="VZvGrH1b7IaxPJ_ZFM3U-92" value="" style="line;strokeWidth=1;fillColor=none;align=left;verticalAlign=middle;spacingTop=-1;spacingLeft=3;spacingRight=3;rotatable=0;labelPosition=right;points=[];portConstraint=eastwest;strokeColor=inherit;" vertex="1" parent="VZvGrH1b7IaxPJ_ZFM3U-87">
          <mxGeometry y="106" width="160" height="8" as="geometry" />
        </mxCell>
        <mxCell id="VZvGrH1b7IaxPJ_ZFM3U-93" value="+ ObtenerStock(): void" style="text;strokeColor=none;fillColor=none;align=left;verticalAlign=top;spacingLeft=4;spacingRight=4;overflow=hidden;rotatable=0;points=[[0,0.5],[1,0.5]];portConstraint=eastwest;whiteSpace=wrap;html=1;" vertex="1" parent="VZvGrH1b7IaxPJ_ZFM3U-87">
          <mxGeometry y="114" width="160" height="26" as="geometry" />
        </mxCell>
        <mxCell id="VZvGrH1b7IaxPJ_ZFM3U-94" value="+ ModificarStock(): void" style="text;strokeColor=none;fillColor=none;align=left;verticalAlign=top;spacingLeft=4;spacingRight=4;overflow=hidden;rotatable=0;points=[[0,0.5],[1,0.5]];portConstraint=eastwest;whiteSpace=wrap;html=1;" vertex="1" parent="VZvGrH1b7IaxPJ_ZFM3U-87">
          <mxGeometry y="140" width="160" height="26" as="geometry" />
        </mxCell>
        <mxCell id="VZvGrH1b7IaxPJ_ZFM3U-95" value="+ ConsultarCod(): void" style="text;strokeColor=none;fillColor=none;align=left;verticalAlign=top;spacingLeft=4;spacingRight=4;overflow=hidden;rotatable=0;points=[[0,0.5],[1,0.5]];portConstraint=eastwest;whiteSpace=wrap;html=1;" vertex="1" parent="VZvGrH1b7IaxPJ_ZFM3U-87">
          <mxGeometry y="166" width="160" height="26" as="geometry" />
        </mxCell>
        <mxCell id="bFQOPjF66tbTwJVJTHA0-26" value="" style="endArrow=diamondThin;endFill=0;endSize=24;html=1;rounded=0;entryX=0.488;entryY=1.115;entryDx=0;entryDy=0;entryPerimeter=0;exitX=0.5;exitY=0;exitDx=0;exitDy=0;" edge="1" parent="1" source="bFQOPjF66tbTwJVJTHA0-12" target="VZvGrH1b7IaxPJ_ZFM3U-29">
          <mxGeometry width="160" relative="1" as="geometry">
            <mxPoint x="656.5" y="1139" as="sourcePoint" />
            <mxPoint x="843.5" y="1120" as="targetPoint" />
          </mxGeometry>
        </mxCell>
        <mxCell id="bFQOPjF66tbTwJVJTHA0-36" value="" style="endArrow=diamondThin;endFill=1;endSize=24;html=1;rounded=0;exitX=0.535;exitY=0.009;exitDx=0;exitDy=0;exitPerimeter=0;entryX=0.283;entryY=1.077;entryDx=0;entryDy=0;entryPerimeter=0;" edge="1" parent="1" source="VZvGrH1b7IaxPJ_ZFM3U-11" target="VZvGrH1b7IaxPJ_ZFM3U-79">
          <mxGeometry width="160" relative="1" as="geometry">
            <mxPoint x="572" y="539" as="sourcePoint" />
            <mxPoint x="420" y="383" as="targetPoint" />
          </mxGeometry>
        </mxCell>
        <mxCell id="bFQOPjF66tbTwJVJTHA0-37" value="" style="endArrow=diamondThin;endFill=1;endSize=24;html=1;rounded=0;exitX=0;exitY=0.5;exitDx=0;exitDy=0;entryX=1;entryY=0.115;entryDx=0;entryDy=0;entryPerimeter=0;" edge="1" parent="1" source="VZvGrH1b7IaxPJ_ZFM3U-22" target="VZvGrH1b7IaxPJ_ZFM3U-53">
          <mxGeometry width="160" relative="1" as="geometry">
            <mxPoint x="650" y="770" as="sourcePoint" />
            <mxPoint x="647" y="734" as="targetPoint" />
          </mxGeometry>
        </mxCell>
        <mxCell id="bFQOPjF66tbTwJVJTHA0-40" value="" style="endArrow=diamondThin;endFill=0;endSize=24;html=1;rounded=0;entryX=1;entryY=0.154;entryDx=0;entryDy=0;entryPerimeter=0;exitX=0.069;exitY=-0.021;exitDx=0;exitDy=0;exitPerimeter=0;" edge="1" parent="1" source="bFQOPjF66tbTwJVJTHA0-12" target="VZvGrH1b7IaxPJ_ZFM3U-20">
          <mxGeometry width="160" relative="1" as="geometry">
            <mxPoint x="650" y="1070" as="sourcePoint" />
            <mxPoint x="648" y="989" as="targetPoint" />
          </mxGeometry>
        </mxCell>
        <mxCell id="bFQOPjF66tbTwJVJTHA0-41" value="" style="endArrow=diamondThin;endFill=0;endSize=24;html=1;rounded=0;entryX=0.538;entryY=1.154;entryDx=0;entryDy=0;entryPerimeter=0;exitX=0.25;exitY=0;exitDx=0;exitDy=0;" edge="1" parent="1" source="VZvGrH1b7IaxPJ_ZFM3U-87" target="bFQOPjF66tbTwJVJTHA0-21">
          <mxGeometry width="160" relative="1" as="geometry">
            <mxPoint x="581" y="1066" as="sourcePoint" />
            <mxPoint x="420" y="764" as="targetPoint" />
          </mxGeometry>
        </mxCell>
      </root>
    </mxGraphModel>
  </diagram>
</mxfile>
